<svg width="25" height="28" viewBox="0 0 25 28" fill="none" xmlns="http://www.w3.org/2000/svg">
<path d="M2.69768 22.1097L10.4465 26.522C11.0583 26.8563 11.806 27.0568 12.6216 27.0568C13.4373 27.0568 14.185 26.8563 14.7967 26.522L22.5456 22.1097C23.7691 21.3743 24.7207 19.7698 24.7207 18.3659V9.54126C24.7207 8.13734 23.7691 6.53287 22.5456 5.79748L14.7967 1.38517C14.185 1.0509 13.3693 0.850342 12.5537 0.850342C11.738 0.850342 10.9903 1.0509 10.3785 1.38517L2.6297 5.79748C1.4062 6.53287 0.45459 8.13734 0.45459 9.54126V18.3659C0.45459 19.7698 1.4062 21.3743 2.69768 22.1097ZM22.1378 9.14014C22.1378 9.27385 22.2057 9.40756 22.2057 9.47441V17.6974L14.253 13.753C14.3889 13.6193 14.5249 13.4856 14.6608 13.4187L22.1378 9.14014ZM13.7772 24.1821V16.2934L21.1861 19.9704L13.7772 24.1821ZM2.96957 9.54126C2.96957 9.00644 3.44537 8.2042 3.92118 7.93679L11.67 3.52447C11.8739 3.39076 12.2138 3.32391 12.6216 3.32391C12.9615 3.32391 13.3014 3.39076 13.5732 3.52447L20.3025 7.33511L13.3693 11.2794C12.1458 12.0148 11.1942 13.6193 11.1942 15.0232V24.0484L3.92118 19.9035C3.44537 19.6361 2.96957 18.8339 2.96957 18.299V9.54126Z" fill="#525050"/>
</svg>
