<svg width="15" height="17" viewBox="0 0 15 17" fill="none" xmlns="http://www.w3.org/2000/svg">
<path d="M1.87152 13.462L6.42732 16.098C6.78699 16.2977 7.22658 16.4175 7.70614 16.4175C8.1857 16.4175 8.62529 16.2977 8.98496 16.098L13.5408 13.462C14.2601 13.0227 14.8196 12.0642 14.8196 11.2255V5.95359C14.8196 5.11489 14.2601 4.15636 13.5408 3.71704L8.98496 1.0811C8.62529 0.881412 8.14573 0.761597 7.66618 0.761597C7.18662 0.761597 6.74702 0.881412 6.38736 1.0811L1.83156 3.71704C1.11222 4.15636 0.552734 5.11489 0.552734 5.95359V11.2255C0.552734 12.0642 1.11222 13.0227 1.87152 13.462ZM13.301 5.71396C13.301 5.79384 13.3409 5.87372 13.3409 5.91366V10.8261L8.66526 8.46972C8.74518 8.38984 8.82511 8.30996 8.90503 8.27002L13.301 5.71396ZM8.38551 14.7001V9.98738L12.7415 12.184L8.38551 14.7001ZM2.03137 5.95359C2.03137 5.63409 2.31111 5.15483 2.59086 4.99507L7.14666 2.35913C7.26655 2.27926 7.46636 2.23932 7.70614 2.23932C7.90596 2.23932 8.10577 2.27926 8.26562 2.35913L12.222 4.63563L8.14573 6.99199C7.4264 7.43132 6.86691 8.38984 6.86691 9.22855V14.6202L2.59086 12.1441C2.31111 11.9843 2.03137 11.505 2.03137 11.1855V5.95359Z" fill="#9D9D9D"/>
</svg>
