<svg width="85" height="26" viewBox="0 0 85 26" fill="none" xmlns="http://www.w3.org/2000/svg">
<path d="M83.1739 0.434573C83.0988 0.16883 82.8225 0.0142571 82.5568 0.0893251L78.2263 1.31263C77.9605 1.3877 77.8059 1.66398 77.881 1.92972C77.9561 2.19546 78.2324 2.35004 78.4981 2.27497L82.3475 1.18759L83.4348 5.03695C83.5099 5.3027 83.7862 5.45727 84.0519 5.3822C84.3177 5.30713 84.4723 5.03085 84.3972 4.76511L83.1739 0.434573ZM0.517007 2.67728C8.29424 13.5569 23.2506 23.2086 39.1067 25.0936C47.0447 26.0373 55.2214 25.0358 62.836 21.2533C70.4524 17.4698 77.4759 10.9191 83.1291 0.814623L82.2564 0.326368C76.6885 10.2783 69.8047 16.6749 62.3911 20.3577C54.9756 24.0413 46.9993 25.0249 39.2247 24.1006C23.6557 22.2497 8.9487 12.7529 1.33053 2.09574L0.517007 2.67728Z" fill="black"/>
</svg>
