<svg width="297" height="40" viewBox="0 0 297 40" fill="none" xmlns="http://www.w3.org/2000/svg">
<path d="M14.221 22.8828L13.163 21.8453C12.4849 22.4963 11.7932 23.0049 11.0879 23.3711C10.3826 23.7238 9.54168 23.9001 8.56513 23.9001C7.77847 23.9001 7.04606 23.7509 6.3679 23.4525C5.70331 23.1405 5.12009 22.7201 4.61825 22.1911C4.12998 21.6622 3.74343 21.0383 3.4586 20.3194C3.18734 19.6006 3.05171 18.8275 3.05171 18.0001C3.05171 17.1728 3.18734 16.4064 3.4586 15.7012C3.74343 14.9823 4.12998 14.3584 4.61825 13.8294C5.12009 13.3005 5.70331 12.8868 6.3679 12.5884C7.04606 12.29 7.77847 12.1408 8.56513 12.1408C9.54168 12.1408 10.3758 12.3239 11.0675 12.6901C11.7728 13.0563 12.4306 13.5243 13.041 14.0939L14.1396 12.9139C13.7869 12.5748 13.4207 12.2697 13.041 11.9984C12.6612 11.7136 12.2475 11.4762 11.7999 11.2863C11.3524 11.0829 10.8641 10.9269 10.3351 10.8184C9.81973 10.7099 9.23651 10.6557 8.58548 10.6557C7.54112 10.6557 6.57813 10.8523 5.69653 11.2457C4.81492 11.6254 4.05538 12.1544 3.41792 12.8325C2.78045 13.4971 2.27861 14.277 1.91241 15.1722C1.55976 16.0674 1.38344 17.0236 1.38344 18.0408C1.38344 19.0716 1.55976 20.0346 1.91241 20.9298C2.27861 21.8249 2.78045 22.6048 3.41792 23.2694C4.05538 23.9204 4.80814 24.4358 5.67618 24.8156C6.54422 25.1954 7.49364 25.3853 8.52444 25.3853C9.17548 25.3853 9.76547 25.3242 10.2944 25.2021C10.8234 25.0801 11.3185 24.9105 11.7796 24.6935C12.2407 24.4765 12.668 24.2188 13.0613 23.9204C13.4682 23.6085 13.8548 23.2626 14.221 22.8828ZM35.1099 18.0001C35.1099 17.01 34.9336 16.0741 34.581 15.1925C34.2419 14.2974 33.7536 13.5175 33.1161 12.8529C32.4787 12.1747 31.7124 11.639 30.8172 11.2457C29.9356 10.8523 28.9523 10.6557 27.8672 10.6557C26.7821 10.6557 25.792 10.8591 24.8969 11.266C24.0017 11.6593 23.2354 12.1951 22.5979 12.8732C21.9604 13.5514 21.4654 14.3381 21.1127 15.2332C20.7601 16.1148 20.5838 17.0507 20.5838 18.0408C20.5838 19.0309 20.7533 19.9736 21.0924 20.8687C21.445 21.7503 21.9401 22.5302 22.5776 23.2084C23.215 23.873 23.9746 24.4019 24.8562 24.7953C25.7513 25.1886 26.7415 25.3853 27.8265 25.3853C28.9116 25.3853 29.9017 25.1886 30.7968 24.7953C31.692 24.3884 32.4583 23.8458 33.0958 23.1677C33.7333 22.4895 34.2283 21.7096 34.581 20.828C34.9336 19.9329 35.1099 18.9902 35.1099 18.0001ZM33.4417 18.0408C33.4417 18.8546 33.2992 19.6209 33.0144 20.3398C32.7432 21.045 32.3634 21.6622 31.8751 22.1911C31.3868 22.7201 30.7968 23.1405 30.1051 23.4525C29.427 23.7509 28.681 23.9001 27.8672 23.9001C27.0534 23.9001 26.3007 23.7441 25.6089 23.4322C24.9308 23.1202 24.3408 22.6997 23.8389 22.1708C23.3371 21.6418 22.9438 21.0179 22.6589 20.2991C22.3877 19.5802 22.2521 18.8139 22.2521 18.0001C22.2521 17.1863 22.3877 16.4268 22.6589 15.7215C22.9438 15.0027 23.3303 14.3787 23.8186 13.8498C24.3069 13.3208 24.8901 12.9071 25.5682 12.6088C26.26 12.2968 27.0127 12.1408 27.8265 12.1408C28.6403 12.1408 29.3863 12.2968 30.0644 12.6088C30.7562 12.9207 31.3529 13.3412 31.8548 13.8701C32.3566 14.3991 32.7432 15.023 33.0144 15.7418C33.2992 16.4607 33.4417 17.227 33.4417 18.0408ZM53.5547 22.3132L44.5826 10.8998H43.0771V25.1411H44.6437V13.4632L53.8395 25.1411H55.1212V10.8998H53.5547V22.3132ZM69.1192 12.385H73.9002V10.8998H62.7106V12.385H67.4916V25.1411H69.1192V12.385ZM86.4446 10.7981H84.9391L78.4491 25.1411H80.0971L81.7857 21.3773H89.537L91.2053 25.1411H92.9346L86.4446 10.7981ZM88.9063 19.9329H82.4164L85.6715 12.6698L88.9063 19.9329ZM100.463 10.8998V25.1411H102.07V10.8998H100.463ZM121.296 22.3132L112.324 10.8998H110.819V25.1411H112.385V13.4632L121.581 25.1411H122.863V10.8998H121.296V22.3132ZM141.764 10.8998H131.469V25.1411H141.866V23.6763H133.077V18.6918H140.848V17.227H133.077V12.3646H141.764V10.8998ZM161.456 25.1411L157.082 19.3225C157.638 19.2276 158.153 19.0648 158.628 18.8342C159.103 18.6037 159.51 18.3188 159.849 17.9798C160.201 17.6271 160.473 17.2202 160.663 16.7591C160.852 16.2844 160.947 15.7486 160.947 15.1518C160.947 14.5144 160.825 13.9379 160.581 13.4225C160.337 12.8936 159.991 12.446 159.544 12.0798C159.096 11.7 158.553 11.4084 157.916 11.205C157.292 11.0015 156.587 10.8998 155.8 10.8998H149.676V25.1411H151.284V19.6073H155.353L159.483 25.1411H161.456ZM159.32 15.2129C159.32 15.674 159.225 16.0877 159.035 16.4539C158.859 16.8201 158.608 17.1321 158.282 17.3898C157.957 17.6339 157.57 17.8238 157.123 17.9594C156.675 18.0951 156.187 18.1629 155.658 18.1629H151.284V12.385H155.678C156.831 12.385 157.726 12.6359 158.364 13.1377C159.001 13.626 159.32 14.3177 159.32 15.2129Z" fill="black"/>
<path d="M178.091 32.3995L189.713 39.1239C190.631 39.6333 191.752 39.9389 192.975 39.9389C194.199 39.9389 195.32 39.6333 196.238 39.1239L207.86 32.3995C209.695 31.2787 211.122 28.8335 211.122 26.6939V13.2451C211.122 11.1055 209.695 8.66023 207.86 7.5395L196.238 0.815081C195.32 0.305655 194.097 0 192.873 0C191.65 0 190.529 0.305655 189.611 0.815081L177.989 7.5395C176.154 8.66023 174.727 11.1055 174.727 13.2451V26.6939C174.727 28.8335 176.154 31.2787 178.091 32.3995ZM207.248 12.6337C207.248 12.8375 207.35 13.0413 207.35 13.1432V25.675L195.422 19.6638C195.626 19.46 195.83 19.2563 196.034 19.1544L207.248 12.6337ZM194.709 35.5579V23.5355L205.821 29.1391L194.709 35.5579ZM178.499 13.2451C178.499 12.43 179.212 11.2074 179.926 10.7998L191.548 4.0754C191.854 3.87163 192.364 3.76975 192.975 3.76975C193.485 3.76975 193.995 3.87163 194.403 4.0754L204.496 9.88285L194.097 15.8941C192.262 17.0148 190.834 19.46 190.834 21.5996V35.3541L179.926 29.0372C179.212 28.6297 178.499 27.4071 178.499 26.592V13.2451Z" fill="black"/>
<path d="M230.214 17.9798C230.92 17.9798 231.469 17.817 231.862 17.4915C232.269 17.1524 232.473 16.698 232.473 16.1284V16.0877C232.473 15.4774 232.269 15.0162 231.862 14.7043C231.469 14.3787 230.913 14.216 230.194 14.216H228.343V17.9798H230.214ZM224.396 10.8998H230.499C231.394 10.8998 232.208 11.0151 232.941 11.2457C233.673 11.4627 234.297 11.7882 234.812 12.2222C235.328 12.6427 235.721 13.1648 235.992 13.7888C236.277 14.4127 236.42 15.1179 236.42 15.9046V15.9453C236.42 16.7862 236.264 17.5254 235.952 18.1629C235.653 18.8003 235.233 19.3361 234.69 19.7701C234.148 20.2041 233.497 20.5296 232.737 20.7467C231.991 20.9637 231.177 21.0722 230.296 21.0722H228.343V25.1411H224.396V10.8998ZM242.662 10.8998H246.609V21.6825H253.506V25.1411H242.662V10.8998ZM268.159 19.526L266.572 15.4774L264.965 19.526H268.159ZM264.7 10.7981H268.505L274.567 25.1411H270.336L269.298 22.598H263.805L262.788 25.1411H258.637L264.7 10.7981ZM280.527 10.8998H284.209L290.068 18.4274V10.8998H293.975V25.1411H290.516L284.433 17.3287V25.1411H280.527V10.8998Z" fill="black"/>
</svg>
