<svg width="130" height="7" viewBox="0 0 130 7" fill="none" xmlns="http://www.w3.org/2000/svg">
<path fill-rule="evenodd" clip-rule="evenodd" d="M83.7108 0.986229C83.6662 1.03004 83.4044 1.07597 83.1872 1.07811C83.0907 1.07906 82.9545 1.08797 82.8845 1.0979C82.8005 1.10986 82.6997 1.10452 82.5874 1.08215C82.4719 1.05916 82.2037 1.04589 81.7506 1.04076C81.3744 1.0365 81.0422 1.02205 80.9885 1.00757C80.9072 0.985679 80.866 0.99058 80.707 1.04105C80.4988 1.10713 80.4487 1.11164 80.3409 1.07411C80.2823 1.05366 80.2368 1.0565 80.1294 1.08731C79.592 1.2413 79.529 1.25424 79.4762 1.22126C79.382 1.16243 79.0637 1.07637 78.9402 1.07637C78.8479 1.07637 78.7771 1.0952 78.6744 1.14705C78.532 1.21896 78.4576 1.24151 77.9974 1.35233C77.714 1.42058 77.5382 1.41921 77.3256 1.34701C77.2491 1.32105 77.1712 1.31437 77.0597 1.32423C76.4573 1.37762 76.3562 1.37985 76.2424 1.34212C76.1803 1.32154 76.1295 1.29688 76.1295 1.2873C76.1295 1.27774 76.0682 1.25719 75.9932 1.24164C75.844 1.21066 75.5834 1.24161 75.4591 1.30508C75.4237 1.32313 75.3729 1.33786 75.3461 1.33786C75.3193 1.33786 75.276 1.35925 75.2499 1.3854C75.2237 1.41155 75.1709 1.43295 75.1324 1.43295C75.0939 1.43295 75.0562 1.44317 75.0484 1.45567C75.0298 1.48586 74.9685 1.46057 74.8893 1.38999C74.7625 1.27698 74.7043 1.25932 74.5669 1.29193C74.4685 1.3153 74.3995 1.31539 74.2355 1.29245C73.9998 1.25948 73.5377 1.25614 73.4312 1.28664C73.392 1.29786 73.2904 1.29835 73.2054 1.2877C73.1204 1.27708 72.9546 1.27347 72.8369 1.27969C72.4098 1.30232 71.2127 1.30876 71.1924 1.28853C71.154 1.25009 70.938 1.25768 70.8555 1.30035C70.7565 1.35153 70.367 1.36147 70.21 1.31685C70.0787 1.27953 69.8844 1.27693 69.7108 1.31021C69.6389 1.324 69.517 1.34623 69.4401 1.35964C69.3631 1.37302 69.282 1.40036 69.2599 1.42035C69.2378 1.44037 69.2018 1.45672 69.18 1.45672C69.1581 1.45672 69.1402 1.46718 69.1402 1.47995C69.1402 1.5264 69.0097 1.58696 68.8686 1.60593C68.7098 1.6273 68.1509 1.63182 67.9635 1.61328C67.8304 1.60009 67.6551 1.56172 67.5831 1.53001C67.557 1.51848 67.5008 1.49599 67.4583 1.48002C67.4158 1.46402 67.3811 1.44267 67.3811 1.43256C67.3811 1.42246 67.3429 1.4228 67.2962 1.43333C67.2495 1.44384 67.1827 1.44448 67.1476 1.43474C67.1126 1.42499 66.9823 1.42684 66.8581 1.43885C66.7338 1.45083 66.4236 1.45299 66.1686 1.44363C65.9137 1.43426 65.6569 1.4275 65.5981 1.42862C65.5393 1.42973 65.2023 1.43601 64.8493 1.4426C64.4962 1.44916 64.1432 1.4594 64.0647 1.46532C63.4721 1.51011 63.3145 1.52727 63.268 1.55204C63.2463 1.56362 63.2138 1.55797 63.1862 1.53776C63.1604 1.51889 63.0852 1.50426 63.0139 1.50426C62.9443 1.50426 62.8673 1.49174 62.8428 1.47641C62.8078 1.45458 62.7706 1.45694 62.6707 1.48734C62.6006 1.50867 62.5165 1.5268 62.4839 1.52763C62.4512 1.52846 62.0981 1.5337 61.6994 1.53926C60.8921 1.5505 60.3806 1.58378 60.2373 1.63437C60.1289 1.67264 59.7543 1.69686 59.7357 1.66679C59.7182 1.63857 59.5836 1.642 59.5836 1.67066C59.5836 1.68374 59.5602 1.69444 59.5318 1.69444C59.5033 1.69444 59.4427 1.70782 59.3971 1.72415C59.3309 1.74793 59.3123 1.74793 59.3043 1.72415C59.2984 1.70666 59.2531 1.69444 59.1941 1.69444C59.1389 1.69444 59.0822 1.68281 59.068 1.6686C59.0494 1.64999 59.0377 1.64999 59.0262 1.6686C59.0174 1.68281 58.9761 1.69449 58.9344 1.69456C58.8926 1.69463 58.769 1.72672 58.6597 1.76587C58.5503 1.80502 58.4349 1.83707 58.4033 1.83707C58.3716 1.83707 58.3204 1.85366 58.2894 1.87394C58.2585 1.89421 58.1867 1.90989 58.1298 1.90875C58.0729 1.90761 57.9516 1.91799 57.86 1.93182C57.7685 1.94566 57.6776 1.95783 57.658 1.9589C57.6037 1.96182 57.375 1.91568 57.2443 1.87544C57.1469 1.84543 57.1177 1.84466 57.066 1.87064C56.9809 1.91345 56.879 1.93834 56.7665 1.94386C56.7142 1.94643 56.6126 1.96142 56.5406 1.97718C56.2896 2.03224 56.2741 2.03378 56.2566 2.00545C56.2383 1.97585 55.9193 1.9642 55.8751 1.99152C55.8616 1.99984 55.817 1.9899 55.776 1.96941C55.7349 1.94891 55.6651 1.93216 55.6209 1.93216C55.5767 1.93216 55.5139 1.91469 55.4813 1.89334C55.426 1.85711 55.4244 1.85084 55.4578 1.79989C55.4933 1.74567 55.4926 1.74515 55.3638 1.72905C55.2924 1.72014 55.2077 1.71945 55.1756 1.72751C55.1435 1.73557 55.1103 1.73097 55.1018 1.71731C55.0934 1.70364 55.0419 1.69442 54.9875 1.6968C54.933 1.6992 54.8412 1.68805 54.7834 1.67202C54.6621 1.63841 54.386 1.65764 54.2632 1.70823C54.1618 1.75004 52.6501 1.76076 52.5744 1.72023C52.5479 1.70604 52.453 1.69444 52.3635 1.69444C52.2277 1.69444 52.1937 1.70269 52.1581 1.74429C52.123 1.78532 52.0999 1.79121 52.028 1.77755C51.7597 1.72651 51.6365 1.71107 51.4651 1.70701C51.3605 1.70454 51.264 1.71072 51.2506 1.72075C51.2371 1.73078 51.0392 1.74438 50.8108 1.75097C50.3873 1.76316 50.1898 1.7761 50.0625 1.79992C50.0232 1.80726 49.9183 1.79806 49.8295 1.77947C49.6533 1.7426 49.5074 1.74872 49.1899 1.8062C49.0151 1.83784 48.9711 1.83876 48.9068 1.81218C48.7861 1.76217 48.5111 1.77169 48.3985 1.82979C48.3376 1.8612 48.2863 1.87256 48.2558 1.86141C48.2297 1.85183 48.128 1.85336 48.03 1.86479C47.7747 1.89455 47.7184 1.89507 47.7008 1.86788C47.6923 1.85461 47.6452 1.82941 47.5961 1.81187C47.5471 1.79432 47.507 1.77143 47.507 1.76097C47.507 1.75054 47.4929 1.74198 47.4758 1.74198C47.4586 1.74198 47.387 1.71421 47.3166 1.68027C47.1988 1.6234 47.1811 1.62096 47.0923 1.64892C47.0392 1.66563 46.9364 1.70858 46.8636 1.74438C46.7284 1.81097 46.5768 1.85121 46.5026 1.84023C46.4797 1.83685 46.461 1.84622 46.461 1.86107C46.461 1.88004 46.4133 1.88357 46.3005 1.87292C46.2122 1.8646 46.0848 1.85374 46.0174 1.84879C45.9499 1.84385 45.7592 1.82703 45.5935 1.81146C45.3501 1.78857 45.2733 1.7891 45.1932 1.8142C45.0329 1.86443 44.602 1.8771 44.0243 1.84855C43.7323 1.83412 43.6483 1.83755 43.5607 1.86731C43.4646 1.89997 43.0202 1.92039 42.7049 1.90665C42.6591 1.90465 42.4434 1.90157 42.2255 1.89976C42.0076 1.89798 41.822 1.88915 41.813 1.88019C41.804 1.8712 41.7736 1.87247 41.7456 1.88295C41.7175 1.89344 41.6376 1.89455 41.568 1.88545C41.4983 1.87637 41.3914 1.87774 41.3302 1.88854C40.9679 1.95253 40.778 1.97773 40.7472 1.96591C40.728 1.95854 40.6747 1.96288 40.6287 1.97557C40.5643 1.99338 40.5336 1.99051 40.4943 1.96301C40.4543 1.93498 40.3996 1.93044 40.237 1.94178C40.1234 1.94967 39.8379 1.96709 39.6025 1.98047C39.3672 1.99383 39.0949 2.00937 38.9975 2.01502C38.8899 2.02125 38.8083 2.01517 38.7894 1.99946C38.7548 1.97072 37.8071 2.00989 37.458 2.05448C37.2645 2.07921 37.2617 2.0788 37.1293 2.00711C37.0296 1.95307 36.9744 1.93753 36.9113 1.94561C36.8648 1.95158 36.7365 1.94069 36.6262 1.92143C36.4189 1.88525 36.3107 1.89253 36.2241 1.94846C36.172 1.98212 35.8205 2.02456 35.4898 2.03713C35.3852 2.0411 35.2215 2.05763 35.126 2.07381C34.9856 2.09766 34.9382 2.09739 34.8782 2.07253C34.8117 2.04502 34.7396 2.04203 34.3249 2.04966C34.2726 2.05064 34.1282 2.05033 34.004 2.049C33.8798 2.04764 33.6655 2.04812 33.5278 2.05002C33.3901 2.05195 33.2587 2.04631 33.2358 2.03752C33.2129 2.02872 33.1464 2.03487 33.088 2.05121C33.0238 2.0692 32.9422 2.07424 32.8809 2.06402C32.6872 2.03166 32.1438 2.02629 32.0619 2.05591C32.001 2.07795 31.9091 2.07726 31.6448 2.0528C31.4583 2.03554 31.2951 2.02225 31.282 2.02325C31.2689 2.02427 31.0603 2.02724 30.8184 2.02988C30.5766 2.03249 30.3686 2.0402 30.3564 2.04698C30.3091 2.07315 30.0694 2.04686 30.0506 2.01341C30.0306 1.9779 29.9586 1.96791 29.9298 1.99665C29.9205 2.00599 29.8572 2.01548 29.7892 2.01771C29.7211 2.01997 29.612 2.03656 29.5466 2.05455C29.4623 2.07778 29.3138 2.08535 29.0355 2.08057C28.734 2.07539 27.7238 2.07351 27.4665 2.07765C27.4469 2.07795 27.2757 2.0766 27.0861 2.07465C26.8965 2.07268 26.7139 2.08163 26.6802 2.09454C26.6465 2.10745 26.5235 2.12079 26.4068 2.12416C26.2901 2.12756 26.1819 2.13997 26.1664 2.15176C26.1494 2.16471 26.1194 2.1631 26.0905 2.14763C26.0598 2.13118 25.9557 2.12744 25.7978 2.13719C25.5307 2.15362 25.2843 2.15823 25.1724 2.14887C25.1332 2.14559 25.0583 2.14497 25.006 2.14749C24.9537 2.15001 24.8931 2.14461 24.8715 2.13548C24.8241 2.11559 24.5869 2.13054 24.5456 2.15604C24.5295 2.166 24.2628 2.17758 23.9529 2.18179C23.643 2.18599 23.3418 2.19562 23.2837 2.20315C23.2211 2.21128 23.1717 2.2068 23.1627 2.19215C23.1522 2.17525 23.1286 2.17601 23.0879 2.19457C23.0473 2.21304 23.0025 2.21454 22.9472 2.1993C22.9026 2.18698 22.8074 2.18468 22.7355 2.19417C22.6637 2.20368 22.5869 2.20207 22.5648 2.19061C22.54 2.17772 22.5188 2.17924 22.5093 2.19455C22.5009 2.2082 22.4727 2.2126 22.4467 2.20435C22.3762 2.18198 22.0701 2.17422 22.0701 2.19481C22.0701 2.21553 21.5269 2.20518 21.5058 2.18405C21.48 2.15828 21.3237 2.16931 21.1548 2.20877C21.0633 2.23019 20.8707 2.25586 20.7269 2.26587C20.4492 2.28515 20.1022 2.3302 20.0679 2.3514C20.0517 2.36141 19.7278 2.36274 19.3362 2.3544C19.3166 2.35397 19.2417 2.36155 19.1698 2.3712C18.9923 2.39507 18.4159 2.39623 18.318 2.37293C18.2653 2.3604 18.2195 2.36442 18.1813 2.38484C18.1366 2.40878 18.1043 2.40962 18.0356 2.38854C17.9704 2.3685 17.9431 2.3684 17.9309 2.3882C17.9074 2.42621 17.3028 2.41409 17.2088 2.37372C17.1694 2.3568 17.11 2.33202 17.0769 2.31866C17.0065 2.2903 16.6999 2.30326 16.5765 2.33979C16.5045 2.36114 16.476 2.35724 16.3923 2.31453C16.2915 2.26311 16.2504 2.26189 15.8535 2.2986C15.6107 2.32104 14.0734 2.36991 13.7733 2.36473C12.9037 2.34971 12.6386 2.35283 12.5922 2.37869C12.5192 2.41929 12.1336 2.41556 12.0784 2.3737C12.0349 2.34073 11.9428 2.34902 11.9428 2.38591C11.9428 2.42281 11.7905 2.44734 11.694 2.42595C11.637 2.41332 11.5806 2.41396 11.5514 2.42761C11.407 2.49495 11.2291 2.50727 10.6113 2.49263C9.88403 2.4754 9.67956 2.46199 9.65997 2.4303C9.65146 2.41654 9.57586 2.42592 9.46845 2.45405C9.37084 2.47963 9.26983 2.50012 9.24401 2.4996C9.2182 2.49907 9.02055 2.49907 8.80481 2.4996C8.40077 2.50059 8.31533 2.49656 8.29439 2.47565C8.28771 2.46894 8.19922 2.47908 8.09779 2.49814C7.88107 2.53887 7.38382 2.5686 7.21203 2.55113C7.17935 2.5478 7.10213 2.5555 7.04044 2.56822C6.97875 2.58094 6.92238 2.58546 6.91518 2.57828C6.88748 2.55059 6.72668 2.50599 6.70431 2.51982C6.67051 2.54072 6.47277 2.58312 6.04985 2.66024C5.8843 2.69041 5.7984 2.69518 5.71703 2.67871C5.65672 2.66651 5.51858 2.66202 5.41003 2.66875C5.30148 2.67548 5.20368 2.67197 5.19267 2.66094C5.18167 2.64991 5.11534 2.65176 5.04531 2.66502C4.85869 2.70037 4.71016 2.70429 4.00118 2.69252C3.82381 2.68957 3.61451 2.69462 3.53606 2.70372C3.38672 2.72105 3.2999 2.75755 3.35489 2.77984C3.37125 2.78648 3.38461 2.8083 3.38461 2.82831C3.38461 2.86048 3.37779 2.86026 3.32601 2.82634C3.2938 2.80523 3.23417 2.78795 3.19357 2.78795C3.10837 2.78795 3.0258 2.85227 3.0733 2.88163C3.12187 2.91165 2.9856 2.94945 2.78078 2.96279C2.67746 2.96949 2.58653 2.98373 2.57871 2.99438C2.57086 3.00506 2.46816 3.01582 2.35049 3.01829C2.23281 3.02079 2.04025 3.02946 1.92258 3.03759C1.8049 3.04572 1.67921 3.05324 1.64325 3.05431C1.60728 3.05538 1.57787 3.06408 1.57787 3.07366C1.57787 3.08321 1.54846 3.09703 1.5125 3.10433C1.4707 3.11281 1.43664 3.14174 1.41802 3.18455C1.3875 3.25482 1.26138 3.31093 1.13399 3.31093C1.05682 3.31093 0.912733 3.40357 0.912115 3.45356C0.911711 3.48805 0.796721 3.55219 0.674505 3.58611C0.543636 3.62244 0.543375 3.77138 0.67384 3.93315C0.696876 3.9617 0.740425 3.97654 0.801188 3.97654C0.922715 3.97654 1.22471 4.04947 1.26457 4.08846C1.30266 4.12568 1.44427 4.12873 1.50964 4.09376C1.54064 4.07716 1.56694 4.07635 1.58534 4.09145C1.63348 4.13093 1.86234 4.14385 2.17219 4.12452C2.33563 4.11435 2.52284 4.1148 2.58822 4.12557C2.65359 4.13631 2.76592 4.15416 2.83783 4.16521C2.90974 4.17629 2.9925 4.19305 3.02172 4.20248C3.05093 4.2119 3.09372 4.21082 3.1168 4.2001C3.19594 4.16328 3.37041 4.17551 3.40379 4.2202C3.42307 4.24602 3.4665 4.2618 3.51826 4.2618C3.56414 4.2618 3.62505 4.27488 3.65362 4.29083C3.68217 4.3068 3.76973 4.3212 3.84818 4.32284C3.92663 4.32448 4.042 4.34351 4.10457 4.36514C4.16714 4.38675 4.23232 4.40443 4.24946 4.40443C4.26658 4.40443 4.29998 4.42582 4.32363 4.45197C4.34729 4.47812 4.3844 4.49952 4.40605 4.49952C4.42773 4.49952 4.48974 4.52091 4.54387 4.54706C4.598 4.57321 4.67961 4.5946 4.72523 4.5946C4.77085 4.5946 4.81478 4.6053 4.82286 4.61837C4.83095 4.63145 4.86815 4.64215 4.90552 4.64215C5.04143 4.64215 5.08153 4.685 5.01504 4.75912C4.97983 4.79837 4.98953 4.92741 5.02771 4.92741C5.03924 4.92741 5.0487 4.94346 5.0487 4.96307C5.0487 4.98268 5.06948 4.99873 5.0949 4.99873C5.12031 4.99873 5.15614 5.02016 5.17449 5.04638C5.20102 5.08428 5.22379 5.09088 5.28522 5.07859C5.33517 5.06861 5.36885 5.07332 5.38034 5.09189C5.39011 5.10767 5.47193 5.13192 5.56215 5.14575C5.73172 5.17171 5.82227 5.20297 5.87647 5.25422C5.89373 5.27056 5.93605 5.29101 5.9705 5.29963C6.02898 5.31433 6.07326 5.3481 6.20787 5.48068C6.28698 5.55858 6.49026 5.59533 6.58205 5.54829C6.62527 5.52613 6.73299 5.50903 6.85544 5.50492C6.96658 5.50117 7.06821 5.49709 7.08128 5.49583C7.11618 5.49247 7.26894 5.55392 7.28677 5.57848C7.29521 5.59008 7.34336 5.60189 7.39375 5.60472C7.44418 5.60755 7.54304 5.62689 7.61346 5.64769C7.68787 5.66966 7.83013 5.68566 7.95296 5.68585C8.06923 5.68604 8.1759 5.69332 8.18997 5.70202C8.20405 5.71069 8.2583 5.70371 8.31053 5.68647C8.39516 5.65854 8.40797 5.65952 8.42806 5.69539C8.44606 5.72758 8.4859 5.73566 8.6263 5.73566C8.72294 5.73566 8.80862 5.74635 8.8167 5.75943C8.82478 5.7725 8.85514 5.7832 8.88417 5.7832C8.91319 5.7832 8.95237 5.80459 8.97122 5.83074C9.00039 5.87122 9.03277 5.87829 9.18903 5.87829C9.28997 5.87829 9.37916 5.88898 9.38725 5.90206C9.39533 5.91513 9.45925 5.92583 9.52931 5.92583C9.59935 5.92583 9.66023 5.93537 9.6646 5.94701C9.66898 5.95869 9.72309 5.96037 9.78544 5.95076C9.84754 5.94118 9.89836 5.94 9.89836 5.94813C9.89836 5.96879 10.2438 6.02092 10.3807 6.02092C10.461 6.02092 10.4983 6.03164 10.5082 6.05757C10.5199 6.088 10.5522 6.09163 10.6984 6.07903C10.8219 6.06838 10.8849 6.0725 10.9094 6.09283C10.9339 6.11313 10.9444 6.11382 10.9444 6.09513C10.9444 6.04687 11.0623 6.06727 11.1647 6.13324C11.3992 6.28428 11.452 6.29505 11.8715 6.27712C11.9565 6.27349 12.1116 6.28279 12.2162 6.29776C12.3208 6.31274 12.4149 6.31985 12.4253 6.31355C12.4356 6.30725 12.4574 6.31309 12.4736 6.32655C12.4898 6.33998 12.6525 6.35779 12.8351 6.36606C13.0177 6.37436 13.2126 6.38456 13.2682 6.38874C13.3237 6.3929 13.3692 6.38601 13.3692 6.37343C13.3692 6.36083 13.3879 6.35624 13.4108 6.36323C13.4574 6.37744 13.6892 6.34687 13.7596 6.31718C13.7957 6.30201 13.8023 6.30592 13.7909 6.33551C13.7793 6.36575 13.8006 6.37623 13.8997 6.38907C14.0872 6.41331 14.2981 6.41268 14.316 6.38783C14.3298 6.3686 14.8518 6.3541 15.3423 6.35928C15.5302 6.36128 15.7667 6.35935 16.0172 6.35379C16.1407 6.35103 16.2107 6.35928 16.2222 6.37794C16.234 6.39701 16.3142 6.40531 16.468 6.40333C16.6415 6.4011 16.6944 6.40764 16.6888 6.43055C16.6847 6.44712 16.6859 6.45269 16.6914 6.44287C16.7061 6.41662 16.7684 6.42276 16.8757 6.46105C16.9329 6.48145 16.9739 6.48578 16.9787 6.4719C16.9831 6.4592 17.0071 6.44881 17.0322 6.44881C17.0573 6.44881 17.0778 6.4365 17.0778 6.42145C17.0778 6.40131 17.2018 6.39756 17.5485 6.40721C17.8456 6.41548 18.035 6.41146 18.062 6.39637C18.118 6.36504 18.5271 6.35467 18.5835 6.38312C18.6076 6.39527 18.6878 6.405 18.7618 6.40476C18.9036 6.40429 19.0271 6.43849 19.0271 6.47824C19.0271 6.49124 19.0543 6.49671 19.0875 6.49036C19.143 6.47974 19.2652 6.50961 19.3256 6.54858C19.3763 6.58124 19.5758 6.51185 19.6638 6.43098C19.7034 6.39461 19.7232 6.39371 19.7563 6.42678C19.7703 6.4408 19.818 6.45623 19.8621 6.46108C19.9062 6.4659 19.9798 6.47914 20.0256 6.49048C20.0714 6.50184 20.1864 6.51014 20.2811 6.50893C20.3759 6.50769 20.4535 6.5137 20.4535 6.52226C20.4535 6.53082 20.4963 6.54465 20.5486 6.55302C20.6009 6.56139 20.6437 6.5788 20.6437 6.59173C20.6437 6.62625 20.7145 6.62037 20.7282 6.58469C20.7352 6.56636 20.789 6.55205 20.8629 6.54884C20.9305 6.5459 20.9941 6.53021 21.0041 6.51398C21.0177 6.49208 21.1146 6.48625 21.3798 6.49134C21.6157 6.49588 21.7372 6.48982 21.7372 6.47351C21.7372 6.43255 21.8282 6.44579 21.8365 6.48794C21.8422 6.51682 21.9026 6.53886 22.0669 6.57204C22.2701 6.61305 22.2946 6.61374 22.3462 6.57989C22.3774 6.5595 22.4029 6.53434 22.4029 6.52402C22.4029 6.51368 22.6487 6.50617 22.9491 6.50733C23.3561 6.50888 23.4983 6.50208 23.5065 6.48066C23.5226 6.43851 23.6566 6.49378 23.6709 6.54851C23.6899 6.62118 23.9019 6.58443 24.0061 6.49041C24.0314 6.46754 24.0653 6.44881 24.0813 6.44881C24.1756 6.44881 24.4848 6.52516 24.5202 6.55721C24.5505 6.58457 24.5745 6.58887 24.6058 6.57261C24.6298 6.56016 24.7029 6.54226 24.7683 6.53282C24.8336 6.52339 24.8983 6.50648 24.912 6.49526C24.938 6.47391 25.2365 6.50132 25.422 6.54209C25.5848 6.57786 25.7439 6.57211 25.8384 6.52704C25.9041 6.49573 25.9334 6.49251 25.9662 6.51298C25.9923 6.52928 26.0216 6.53134 26.0422 6.51831C26.0607 6.50662 26.1153 6.49693 26.1635 6.49671C26.2118 6.49652 26.2566 6.48775 26.2631 6.47724C26.2696 6.46671 26.3665 6.45869 26.4784 6.45941C26.5904 6.46012 26.682 6.45487 26.682 6.44774C26.682 6.42176 27.1353 6.4368 27.1523 6.46335C27.1865 6.51653 27.345 6.53213 27.5899 6.50636C27.7051 6.49424 27.7263 6.48447 27.7325 6.44076C27.7419 6.37543 27.8294 6.36061 27.9068 6.41131C27.9383 6.43192 27.9959 6.44881 28.0348 6.44881C28.0737 6.44881 28.1122 6.45951 28.1202 6.47258C28.1389 6.50275 28.2436 6.50368 28.2621 6.47385C28.2735 6.45535 28.4555 6.44819 28.9696 6.44595C28.9923 6.44586 29.017 6.43576 29.0245 6.42352C29.0412 6.39665 29.1544 6.39352 29.1544 6.41993C29.1544 6.4302 29.2151 6.44114 29.2893 6.44425C29.3635 6.44736 29.4382 6.46155 29.4554 6.47579C29.4726 6.4901 29.5053 6.49364 29.5285 6.4837C29.5708 6.46556 29.598 6.46554 29.8022 6.48342C29.8643 6.48886 29.9151 6.4847 29.9151 6.47415C29.9151 6.43932 30.359 6.39347 30.3905 6.42504C30.4298 6.46428 30.6069 6.53994 30.6877 6.55197C30.7913 6.56742 30.8485 6.54575 30.8412 6.49383C30.8305 6.41684 30.8461 6.41322 31.1669 6.41814C31.4628 6.42271 31.5029 6.42865 31.618 6.48499L31.7444 6.54682L31.797 6.49783C31.826 6.47087 31.8637 6.44881 31.8808 6.44881C31.898 6.44881 31.912 6.43704 31.912 6.42263C31.912 6.40538 31.9504 6.4011 32.0249 6.41008C32.3632 6.45085 32.4829 6.45433 32.519 6.4244C32.5685 6.38327 32.7252 6.38817 32.8988 6.43629C33.1616 6.50915 33.1918 6.51453 33.2138 6.49257C33.2477 6.45869 33.5725 6.45924 33.7306 6.49343C33.8944 6.52885 33.9604 6.53146 34.1585 6.51042C34.3891 6.48596 34.4791 6.46868 34.493 6.44619C34.5107 6.41745 34.6505 6.41954 34.7729 6.45035C34.8624 6.47289 34.8869 6.46896 34.9949 6.41469C35.1411 6.34129 35.1526 6.34017 35.1332 6.40127C35.1214 6.43866 35.1289 6.44881 35.1688 6.44881C35.1967 6.44881 35.2386 6.43861 35.2619 6.42615C35.3111 6.39979 35.7193 6.51917 35.7344 6.56434C35.7393 6.57924 35.7612 6.5926 35.783 6.59405C35.8048 6.59548 35.7745 6.60607 35.7157 6.61755C35.6568 6.62903 35.596 6.65567 35.5805 6.67678C35.5553 6.71113 35.5454 6.70854 35.4854 6.65194C35.4319 6.60138 35.4019 6.59103 35.3353 6.60002C35.1982 6.61856 35.0174 6.67743 35.0076 6.70669C35.0026 6.72176 35.0078 6.73407 35.0191 6.73407C35.0305 6.73407 35.0587 6.76616 35.0819 6.80539C35.1117 6.85578 35.1423 6.8767 35.1864 6.8767C35.2505 6.8767 35.3862 6.83971 35.4606 6.80191C35.5081 6.77786 35.5858 6.8106 35.6471 6.88044C35.7039 6.94512 35.9182 6.9425 35.9534 6.8767C35.9745 6.83726 36.0032 6.82916 36.1214 6.82916C36.23 6.82916 36.2674 6.83819 36.2785 6.8671C36.2891 6.8947 36.3118 6.90128 36.3619 6.89127C36.4089 6.88186 36.4296 6.88678 36.427 6.90682C36.4185 6.97253 36.4312 6.99556 36.4756 6.99556C36.503 6.99556 36.5179 6.98325 36.5115 6.96585C36.5056 6.94952 36.5099 6.92165 36.5212 6.90397C36.5375 6.87836 36.5524 6.87756 36.5944 6.90005C36.6247 6.91624 36.6741 6.92121 36.7104 6.91167C36.7451 6.90255 36.9019 6.88547 37.0588 6.87373C37.2157 6.86199 37.4026 6.84596 37.4742 6.83812C37.5585 6.82887 37.6675 6.83789 37.7833 6.86363C37.8817 6.88553 38.0056 6.91286 38.0587 6.92441C38.124 6.9386 38.2048 6.93514 38.3083 6.91365C38.3925 6.8962 38.4775 6.89002 38.4971 6.89993C38.5664 6.93504 38.7564 6.94232 38.8146 6.91213C38.8528 6.89228 38.939 6.88571 39.0709 6.89254C39.6713 6.92368 39.9367 6.92251 40.0304 6.88832C40.3026 6.78903 40.4623 6.7801 40.9219 6.83838C41.3041 6.88686 41.5993 6.88975 41.7029 6.84604C41.7626 6.82081 41.8101 6.81796 41.8931 6.83458C42.0366 6.86336 42.0967 6.86491 42.2431 6.84347C42.3543 6.82721 43.8624 6.79887 44.2739 6.80532C44.3719 6.80684 44.5217 6.80815 44.6067 6.80822C44.6917 6.80827 44.8468 6.80919 44.9514 6.81024C45.1625 6.81238 45.3074 6.80995 45.3793 6.80303C45.4055 6.80053 45.6967 6.80696 46.0264 6.81732C46.4805 6.83158 46.6343 6.82926 46.6603 6.8077C46.6848 6.78735 46.7981 6.78207 47.0591 6.78915C47.4164 6.79885 47.5783 6.81803 47.6021 6.85345C47.616 6.87425 47.8341 6.83779 47.9705 6.79187C48.0228 6.77425 48.1245 6.75368 48.1964 6.74614C48.2683 6.73863 48.3829 6.72052 48.4511 6.7059C48.559 6.68279 48.5959 6.68596 48.737 6.73048C48.9248 6.78975 49.0223 6.79381 49.1713 6.74855C49.2302 6.73067 49.3372 6.71812 49.409 6.72069C49.4808 6.72326 49.65 6.70504 49.785 6.68023C49.9982 6.64103 50.0466 6.6391 50.1535 6.66568C50.3291 6.70932 51.6453 6.70728 51.9606 6.66287C52.1477 6.63651 52.2584 6.63515 52.5129 6.65602C52.7672 6.67692 52.8818 6.6755 53.0834 6.64904C53.2345 6.62919 53.3515 6.62424 53.3751 6.63672C53.4684 6.686 54.0169 6.66566 54.0853 6.61034C54.1012 6.59745 54.1559 6.59403 54.2071 6.60269C54.2928 6.61716 54.3013 6.61359 54.3154 6.55737C54.3267 6.51237 54.3462 6.49635 54.3897 6.49635C54.4221 6.49635 54.4486 6.48749 54.4486 6.47665C54.4486 6.46581 54.5015 6.43219 54.5661 6.40193C54.6747 6.35106 54.6991 6.34854 54.8929 6.36817C55.1882 6.39808 55.7098 6.3928 55.9344 6.35767C56.039 6.34129 56.1353 6.32862 56.1484 6.3295C56.5948 6.35952 56.6766 6.35685 56.8616 6.30629C57.2062 6.21211 57.2958 6.19973 57.4108 6.23051C57.5629 6.27116 57.8815 6.26505 58.074 6.21774C58.2262 6.18035 58.5694 6.16845 59.0725 6.18312C59.3341 6.19075 59.7061 6.1727 59.7211 6.15166C59.7835 6.06444 59.8439 6.05777 60.6058 6.05389C61.0661 6.05154 61.4233 6.03882 61.5329 6.0209C61.631 6.00483 61.7915 5.98296 61.8895 5.97226C61.9876 5.96156 62.1186 5.94311 62.1806 5.93123C62.2967 5.909 63.1051 5.91333 63.4517 5.93803C63.559 5.94568 63.6874 5.94121 63.7369 5.92811C63.8566 5.89645 64.1384 5.89224 64.5164 5.91642C64.9091 5.94154 65.1519 5.93731 65.2136 5.90424C65.2403 5.88995 65.3384 5.87829 65.4317 5.87829C65.5249 5.87829 65.6199 5.86832 65.6426 5.85612C65.6905 5.8305 66.5728 5.81041 66.5728 5.83494C66.5728 5.86014 66.6721 5.88694 66.7467 5.88185C66.7835 5.87935 66.8544 5.88827 66.9043 5.9017C66.9997 5.92739 67.4057 5.96201 67.5475 5.95656C67.7318 5.94945 67.8345 5.92279 67.947 5.8528C68.0583 5.78365 68.0759 5.77999 68.2521 5.78959C68.3549 5.7952 68.5417 5.81344 68.6673 5.8301C68.9115 5.86253 69.0435 5.84918 69.2673 5.76953C69.3616 5.73596 69.4026 5.73311 69.4932 5.75375C69.5598 5.76891 69.6701 5.77185 69.7702 5.76113C69.9826 5.73843 70.1744 5.74357 70.4053 5.77813C70.5779 5.80397 70.5995 5.802 70.7737 5.74464C70.9387 5.69032 70.9809 5.68554 71.1609 5.70066C71.2721 5.70998 71.5742 5.72123 71.8324 5.72562C72.2661 5.73299 72.3058 5.73729 72.354 5.78217C72.4179 5.84172 72.5152 5.84477 72.5769 5.78914C72.6256 5.74519 72.768 5.68811 72.829 5.68811C72.849 5.68811 72.9017 5.66938 72.9462 5.64651C73.0611 5.58741 73.3513 5.59393 73.6214 5.66168C73.836 5.71545 73.9261 5.7317 74.296 5.78333C74.4444 5.80404 74.5221 5.80433 74.601 5.78446C74.6646 5.76844 74.7759 5.76404 74.8799 5.77345C74.9944 5.78384 75.0832 5.77913 75.1427 5.75949C75.3189 5.70133 75.7734 5.68716 76.2874 5.72379C76.4562 5.73582 76.5551 5.73223 76.6168 5.71188C76.6875 5.68856 76.7165 5.68889 76.7624 5.71347C76.8052 5.73636 76.8267 5.73734 76.8468 5.71728C76.8661 5.69798 76.8871 5.69747 76.9207 5.71551C76.9819 5.74822 77.3234 5.74785 77.4607 5.71492C77.6118 5.67869 77.767 5.68191 77.8071 5.72208C77.8639 5.7788 77.846 5.80331 77.736 5.81981C77.6782 5.82848 77.6091 5.8559 77.5825 5.88071C77.5559 5.90553 77.5176 5.92583 77.4974 5.92583C77.4772 5.92583 77.4607 5.94121 77.4607 5.96003C77.4607 5.99812 77.5426 6.01257 77.8649 6.03142C78.416 6.06365 78.5196 6.07557 78.5609 6.11153C78.6229 6.16559 78.9896 6.15408 79.1367 6.09346C79.3171 6.01915 79.4147 6.01017 80.0744 6.00699C80.4478 6.0052 80.8442 5.99201 80.9553 5.9777C81.0963 5.95954 81.2401 5.95885 81.4308 5.97539C81.5812 5.98844 81.7522 6.0032 81.8108 6.00817C81.8694 6.01316 81.9711 6.00781 82.0366 5.99631C82.2338 5.96172 82.4578 5.94257 82.5838 5.94953C82.6492 5.95312 82.8364 5.95315 82.9998 5.94958C83.1632 5.94601 83.412 5.94453 83.5525 5.94632C83.6931 5.94808 83.9177 5.95076 84.0518 5.95231C84.1858 5.95383 84.4291 5.94708 84.5926 5.93729C84.7875 5.92561 84.9801 5.92956 85.1523 5.94872C85.3928 5.97551 85.4347 5.97387 85.6515 5.92927C85.8413 5.89024 85.9974 5.87916 86.4387 5.87348C86.9779 5.86654 86.9908 5.86751 87.0618 5.91988C87.1501 5.98497 87.1855 5.98604 87.343 5.92849C87.5441 5.85498 88.0592 5.82786 88.5399 5.86545C88.6777 5.87624 88.8689 5.87241 89.0272 5.85572C89.4228 5.81398 89.6894 5.81303 89.7378 5.85318C89.7601 5.87169 89.8391 5.88931 89.9134 5.89231C89.9877 5.89532 90.131 5.90379 90.232 5.91111C90.3627 5.9206 90.4345 5.91505 90.4816 5.89185C90.6343 5.81657 90.7121 5.8096 91.1744 5.82993C91.4516 5.8421 91.6973 5.84129 91.792 5.82789C92.005 5.79772 92.4081 5.79839 92.6397 5.82924C92.7443 5.8432 92.8727 5.85368 92.925 5.85256C93.4413 5.84141 94.0403 5.84646 94.1327 5.86272C94.221 5.87822 94.2886 5.87179 94.4299 5.8344C94.7175 5.75835 94.8214 5.74927 94.9057 5.79284C94.9985 5.84084 95.5025 5.84714 95.576 5.80124C95.6136 5.77777 95.6328 5.77777 95.6704 5.80124C95.6964 5.81747 95.7663 5.83074 95.8258 5.83074C95.8852 5.83074 95.96 5.84784 95.9918 5.86873C96.0358 5.89754 96.0786 5.90272 96.1693 5.89026C96.235 5.8812 96.2888 5.86254 96.2888 5.84878C96.2888 5.83195 96.3687 5.82836 96.5325 5.83787C96.7975 5.85325 97.4487 5.82313 97.6837 5.78462C97.8133 5.76339 97.8438 5.76642 97.9433 5.81042C98.0361 5.85147 98.0826 5.85753 98.2068 5.84481C98.2897 5.8363 98.3824 5.81995 98.4126 5.80845C98.4435 5.7967 98.5452 5.79615 98.6441 5.80716C98.7412 5.81797 98.868 5.8181 98.9258 5.80745C99.0066 5.79257 99.0391 5.79622 99.0662 5.82325C99.1358 5.89286 99.3375 5.81374 99.4684 5.66545C99.4978 5.63215 99.5219 5.59155 99.5219 5.57519C99.5219 5.55886 99.538 5.54548 99.5576 5.54548C99.5772 5.54548 99.5932 5.53659 99.5932 5.52573C99.5932 5.51486 99.6196 5.49185 99.6519 5.47459C99.696 5.45101 99.7185 5.44991 99.743 5.47024C99.7632 5.48697 99.8155 5.49159 99.8805 5.48235C99.9383 5.47415 100.127 5.46487 100.3 5.46173C100.472 5.45861 100.654 5.44809 100.704 5.43834C100.753 5.4286 100.831 5.41732 100.876 5.41328C100.922 5.40924 100.963 5.39455 100.968 5.38062C100.972 5.36669 100.991 5.35531 101.009 5.35531C101.027 5.35531 101.079 5.33004 101.124 5.29916C101.17 5.26828 101.252 5.23585 101.306 5.22708C101.361 5.21833 101.429 5.19852 101.456 5.18309C101.484 5.16764 101.517 5.15785 101.529 5.16132C101.54 5.16479 101.557 5.15579 101.566 5.14131C101.575 5.12684 101.678 5.10898 101.794 5.10162C102.019 5.08749 102.246 5.1318 102.303 5.20074C102.319 5.21909 102.377 5.24096 102.432 5.24933C102.518 5.2621 102.558 5.25218 102.686 5.18752C102.802 5.12897 102.864 5.11195 102.945 5.11642C103.251 5.13328 103.392 5.12786 103.428 5.09781C103.46 5.07116 103.488 5.07371 103.604 5.1139C103.801 5.18246 104.042 5.1743 104.207 5.09352C104.227 5.08352 104.329 5.09056 104.432 5.10917C104.541 5.12871 104.687 5.13761 104.776 5.13024C105.03 5.10927 105.402 5.11832 105.747 5.15386C105.956 5.17537 106.38 5.11188 106.475 5.04479C106.508 5.02202 106.645 5.00075 106.927 4.97472C107.058 4.96267 107.25 4.94356 107.355 4.93224C107.592 4.90664 107.759 4.91852 107.832 4.96623C107.88 4.99756 107.905 4.99863 108.002 4.97341C108.136 4.93851 108.322 4.93706 108.522 4.96935C108.602 4.98218 108.796 4.98932 108.954 4.9852C109.194 4.97898 109.259 4.96901 109.344 4.92539C109.429 4.88199 109.495 4.87171 109.732 4.86501C110.455 4.84461 110.57 4.83669 110.638 4.8027C110.69 4.77655 110.768 4.77042 110.95 4.77802C111.184 4.78784 111.195 4.7861 111.259 4.72705C111.295 4.69342 111.331 4.66592 111.338 4.66592C111.345 4.66592 111.365 4.6273 111.382 4.58009C111.422 4.47007 111.478 4.40522 111.519 4.42105C111.54 4.42913 111.547 4.42136 111.538 4.39889C111.527 4.37051 111.573 4.36069 111.794 4.34438C111.941 4.33342 112.213 4.32327 112.398 4.32182C112.623 4.32006 112.746 4.30963 112.769 4.29045C112.812 4.25498 113.383 4.25529 113.489 4.29085C113.547 4.31044 113.577 4.30562 113.65 4.26456C113.699 4.23689 113.761 4.21426 113.786 4.21426C113.812 4.21426 113.833 4.20356 113.833 4.19049C113.833 4.17741 113.865 4.16671 113.904 4.16671C113.969 4.16671 114.067 4.14803 114.276 4.09632C114.335 4.0817 114.357 4.08705 114.382 4.1223C114.407 4.15675 114.445 4.16671 114.55 4.16671C114.625 4.16671 114.693 4.1561 114.701 4.14315C114.72 4.11253 115.325 4.11437 115.383 4.1452C115.44 4.17568 115.508 4.13842 115.62 4.01628C115.697 3.93232 115.719 3.92151 115.806 3.92493C115.898 3.92852 115.97 3.90544 116.031 3.85304C116.045 3.84097 116.091 3.81049 116.133 3.78529C116.191 3.75118 116.21 3.72272 116.21 3.67356C116.21 3.55508 116.306 3.52475 116.721 3.51163C116.861 3.50721 116.962 3.49375 116.967 3.47885C116.977 3.4468 117.154 3.4455 117.173 3.47733C117.201 3.52264 117.258 3.50079 117.281 3.43573C117.294 3.39978 117.315 3.35179 117.328 3.32909C117.341 3.30639 117.352 3.2665 117.352 3.24049C117.352 3.16074 117.454 3.11222 117.584 3.13093C117.834 3.16702 117.964 3.17209 118.047 3.14906C118.111 3.13152 118.167 3.13311 118.249 3.15486C118.322 3.17412 118.41 3.17873 118.493 3.1677C118.565 3.15824 118.633 3.15605 118.645 3.16285C118.682 3.18503 118.954 3.16723 118.97 3.14151C118.98 3.12546 119.133 3.11686 119.397 3.11755C119.623 3.11814 119.82 3.11127 119.834 3.10226C119.848 3.09325 120.012 3.08388 120.198 3.08146C120.452 3.07813 120.564 3.06684 120.644 3.03636C120.726 3.00515 120.785 2.99956 120.898 3.01239C120.979 3.02157 121.065 3.03933 121.088 3.05184C121.119 3.06817 121.159 3.06096 121.231 3.02635C121.286 2.99982 121.371 2.97812 121.42 2.97812C121.47 2.97812 121.556 2.95432 121.612 2.92525C121.694 2.88241 121.749 2.87292 121.904 2.87528C122.024 2.87708 122.101 2.86808 122.112 2.85089C122.125 2.83114 122.136 2.8329 122.151 2.85717C122.169 2.8847 122.202 2.88635 122.336 2.86638C122.5 2.84176 122.704 2.84407 122.748 2.87107C122.761 2.8792 122.772 2.87317 122.772 2.8577C122.772 2.83901 122.796 2.83439 122.844 2.844C122.894 2.85396 122.92 2.84832 122.929 2.8258C122.936 2.80705 122.961 2.79833 122.987 2.80527C123.013 2.81191 123.048 2.80556 123.065 2.79118C123.11 2.75393 123.717 2.73702 123.73 2.77266C123.738 2.79236 123.748 2.79267 123.768 2.77382C123.787 2.75658 123.837 2.75429 123.918 2.76703C123.984 2.77761 124.051 2.7787 124.065 2.7695C124.095 2.75041 124.325 2.72348 124.641 2.70213C124.815 2.69036 124.868 2.69476 124.914 2.72443C125.024 2.79591 125.359 2.76522 125.624 2.65944C125.67 2.6412 125.758 2.60856 125.819 2.5869C125.904 2.55676 125.941 2.52697 125.977 2.45975C126.015 2.38665 126.034 2.37282 126.091 2.37715C126.137 2.38064 126.149 2.37567 126.127 2.36205C126.058 2.31916 126.115 2.28061 126.256 2.27467C126.334 2.27141 126.451 2.25365 126.516 2.2352C126.596 2.21269 126.707 2.2052 126.855 2.21245C126.998 2.21946 127.086 2.2139 127.107 2.19657C127.126 2.18067 127.248 2.16888 127.41 2.16736C127.815 2.16353 128.002 2.14139 128.002 2.09718C128.002 2.08662 128.023 2.0712 128.049 2.0629C128.075 2.05461 128.097 2.03364 128.097 2.01631C128.097 1.97065 128.133 1.96442 128.362 1.97015C128.561 1.97509 128.569 1.97321 128.582 1.91939C128.606 1.82535 128.777 1.66952 128.869 1.65802C128.883 1.65638 128.939 1.63558 128.994 1.61178L129.095 1.56854L129.03 1.53464C128.992 1.51477 128.935 1.50648 128.893 1.51461C128.854 1.52221 128.776 1.53188 128.72 1.53609C128.664 1.54027 128.606 1.55623 128.591 1.57154C128.575 1.58682 128.509 1.59935 128.443 1.59935C128.376 1.59935 128.285 1.61052 128.239 1.62419C128.194 1.63786 128.089 1.64896 128.008 1.64885C127.92 1.64873 127.859 1.65885 127.859 1.6735C127.859 1.68714 127.823 1.67604 127.779 1.64885C127.692 1.59503 127.63 1.5854 127.617 1.62369C127.605 1.66023 127.106 1.6598 126.983 1.62317C126.911 1.60166 126.875 1.60002 126.864 1.61775C126.85 1.64119 126.449 1.64123 125.711 1.61789C125.596 1.61423 125.496 1.61925 125.49 1.62907C125.484 1.63889 125.437 1.64689 125.385 1.64689C125.313 1.64689 125.292 1.65612 125.292 1.68731C125.292 1.7152 125.284 1.72008 125.267 1.70308C125.251 1.68692 125.204 1.68574 125.13 1.6996C125.025 1.7194 124.446 1.737 123.532 1.74819C123.243 1.75171 123.11 1.74386 123.032 1.71876C122.974 1.69995 122.921 1.67784 122.914 1.66964C122.887 1.63532 122.708 1.60951 122.629 1.62855C122.583 1.63965 122.479 1.64906 122.397 1.64944C122.316 1.64982 122.249 1.65961 122.249 1.67119C122.249 1.68276 122.203 1.69138 122.148 1.69033C122.016 1.68784 121.469 1.68795 121.393 1.69047C120.972 1.70438 120.726 1.70023 120.667 1.67825C120.628 1.66379 120.532 1.6395 120.454 1.62424C120.375 1.60898 120.278 1.58644 120.238 1.57415C120.15 1.54717 119.871 1.5443 119.871 1.5704C119.871 1.60727 119.665 1.64554 119.479 1.64335C119.374 1.64212 119.229 1.65436 119.156 1.67053C119.024 1.70022 118.959 1.69694 118.635 1.64381C118.537 1.62774 118.347 1.61504 118.213 1.61559C118.005 1.61642 117.97 1.61104 117.969 1.57824C117.969 1.55299 117.963 1.54921 117.951 1.56716C117.929 1.60265 117.656 1.6061 117.634 1.57118C117.623 1.55307 117.599 1.55944 117.558 1.59128C117.511 1.62864 117.457 1.63877 117.287 1.6424C117.17 1.6449 117.025 1.63772 116.965 1.62648C116.894 1.61331 116.846 1.61471 116.831 1.63043C116.805 1.6565 116.291 1.66042 116.127 1.6358C116.075 1.6279 115.952 1.61618 115.854 1.60976C115.757 1.60334 115.667 1.58856 115.655 1.57691C115.643 1.56455 115.598 1.57591 115.548 1.60432C115.478 1.64383 115.423 1.65236 115.253 1.65005C115.119 1.64822 115.019 1.63444 114.975 1.61155C114.937 1.59196 114.892 1.58084 114.875 1.58685C114.802 1.61243 114.522 1.62738 113.976 1.63496C113.655 1.63943 113.329 1.65051 113.251 1.65962C112.935 1.69627 112.876 1.6929 112.74 1.63061C112.501 1.52141 112.467 1.52007 111.991 1.60178C111.828 1.62971 111.736 1.63447 111.551 1.62453C111.479 1.62068 111.367 1.61887 111.301 1.62051C111.129 1.62484 111.001 1.60819 110.874 1.56521C110.813 1.54441 110.754 1.53307 110.743 1.53999C110.731 1.54691 110.715 1.54171 110.707 1.52842C110.699 1.51513 110.666 1.50426 110.633 1.50426C110.6 1.50426 110.554 1.49402 110.531 1.48147C110.466 1.44705 110.125 1.54978 110.125 1.60355C110.125 1.65245 110.008 1.667 109.883 1.63372C109.813 1.61506 109.644 1.59306 109.507 1.58481C109.25 1.56938 109.222 1.55739 109.222 1.46266C109.221 1.43323 109.211 1.40918 109.197 1.40918C109.184 1.40918 109.174 1.41987 109.174 1.43295C109.174 1.44602 109.123 1.45672 109.06 1.45672C108.974 1.45672 108.938 1.46813 108.912 1.50426C108.893 1.53041 108.859 1.55181 108.836 1.55181C108.812 1.55181 108.793 1.56122 108.793 1.57275C108.793 1.60617 108.336 1.62072 108.294 1.58863C108.274 1.57356 108.2 1.55849 108.128 1.55514C108.055 1.55172 107.971 1.53148 107.938 1.50937C107.887 1.4759 107.804 1.46936 107.403 1.46729C107.141 1.46596 106.901 1.47421 106.869 1.48565C106.832 1.49884 106.787 1.49632 106.744 1.47866C106.692 1.45712 106.67 1.45757 106.642 1.48061C106.616 1.50212 106.454 1.51168 106.053 1.51529C105.749 1.51805 105.481 1.52877 105.458 1.53916C105.434 1.54952 105.354 1.54915 105.279 1.53831C105.111 1.51378 104.961 1.50562 104.474 1.49442C104.263 1.48955 104.078 1.47833 104.064 1.46949C104.05 1.46067 104.014 1.45575 103.985 1.4586C103.956 1.46145 103.912 1.45544 103.889 1.44524C103.865 1.43493 103.819 1.43864 103.787 1.45361C103.711 1.48813 103.706 1.4876 103.706 1.44484C103.706 1.40171 103.666 1.39731 103.652 1.43889C103.642 1.47041 103.56 1.45033 103.368 1.36884C103.294 1.33758 103.268 1.33634 103.208 1.36127C103.168 1.37772 103.135 1.40021 103.135 1.41129C103.135 1.42234 103.058 1.43257 102.963 1.43397C102.369 1.44277 102.193 1.44248 101.965 1.43238C101.769 1.42373 101.709 1.41338 101.709 1.38837C101.709 1.3646 101.69 1.35976 101.638 1.37055C101.598 1.37873 101.534 1.39208 101.495 1.40026C101.456 1.40844 101.424 1.40547 101.424 1.39368C101.424 1.35871 99.6337 1.35397 99.4506 1.38847C99.3656 1.40447 99.2854 1.42508 99.2723 1.43428C99.2383 1.45813 98.5585 1.41685 98.5038 1.38761C98.4763 1.37289 98.4308 1.37107 98.3892 1.38303C98.3001 1.40854 98.0466 1.39009 98.0043 1.355C97.941 1.30244 97.6672 1.2912 97.3944 1.32997C97.2269 1.35374 97.0859 1.36081 97.0021 1.34961C96.9301 1.34001 96.8071 1.32944 96.7286 1.32614C96.6502 1.32281 96.5437 1.30831 96.4919 1.2939C96.427 1.27579 96.3932 1.27534 96.3826 1.29245C96.3729 1.30817 96.3155 1.3114 96.2259 1.30125C96.0778 1.28449 95.6575 1.33998 95.5597 1.38919C95.5305 1.4039 95.4738 1.40804 95.429 1.39876C95.3854 1.38975 95.3186 1.37939 95.2805 1.37573C95.2424 1.37206 95.1938 1.34759 95.1726 1.3213C95.1513 1.29503 95.1117 1.26165 95.0845 1.2471C95.0574 1.23258 95.0287 1.18822 95.0207 1.14854C95.0075 1.0826 94.9575 1.0443 94.9575 1.10015C94.9575 1.11322 94.9347 1.12391 94.9068 1.12391C94.843 1.12391 94.6678 1.17296 94.6378 1.19925C94.6254 1.21011 94.5968 1.219 94.5744 1.219C94.552 1.219 94.53 1.22811 94.5257 1.23924C94.5213 1.25038 94.4462 1.26664 94.3588 1.27539C94.2102 1.2903 94.1961 1.28747 94.14 1.23139C94.0811 1.17241 94.0066 1.15092 94.0066 1.1929C94.0066 1.20469 93.9398 1.22181 93.858 1.23093C93.7763 1.24006 93.6453 1.26205 93.5668 1.27979C93.4524 1.30565 93.3395 1.30722 92.9963 1.28775C92.7609 1.27439 92.4107 1.26415 92.2179 1.26498C91.8924 1.26638 91.8653 1.26312 91.8378 1.21898C91.8215 1.19285 91.7893 1.17146 91.7662 1.17146C91.7433 1.17146 91.7244 1.15962 91.7244 1.14514C91.7244 1.13067 91.7087 1.12487 91.6894 1.13226C91.6701 1.13966 91.6453 1.12945 91.6342 1.10958C91.623 1.08968 91.5796 1.07245 91.5376 1.07126C91.4956 1.07007 91.4556 1.06004 91.4488 1.04897C91.4419 1.03789 91.3193 1.02883 91.1763 1.02883C91.0251 1.02883 90.9162 1.01922 90.9162 1.00591C90.9162 0.99329 90.8654 1.00575 90.8032 1.03356C90.7186 1.0715 90.6487 1.08319 90.5239 1.08029C90.4324 1.07818 90.3308 1.08856 90.2981 1.10335C90.1011 1.19256 89.9709 1.21895 89.7248 1.21952C89.6021 1.21978 89.4054 1.23659 89.2877 1.25684C88.9419 1.31634 88.8741 1.32086 88.7983 1.28946C88.759 1.2732 88.6177 1.25749 88.4843 1.25457C88.2332 1.24905 88.0697 1.22713 88.0266 1.19316C88.0129 1.18237 87.8954 1.18442 87.7655 1.19768C87.6002 1.21461 87.527 1.2143 87.5211 1.19666C87.5165 1.1828 87.4584 1.17146 87.392 1.17146C87.2578 1.17146 86.7771 1.08797 86.6846 1.04858C86.6519 1.03468 86.6066 1.01382 86.5839 1.00227C86.5221 0.970865 86.4305 0.976512 86.1956 1.02612C86.0498 1.05693 85.9291 1.06729 85.8105 1.0592C85.6885 1.05088 85.6032 1.05869 85.5207 1.08567C85.39 1.12846 85.1975 1.13649 85.175 1.10015C85.1669 1.08707 85.1338 1.07637 85.1014 1.07637C85.0689 1.07637 85.0016 1.0556 84.9519 1.03021C84.8435 0.974917 84.6666 0.966897 84.4429 1.00714C84.2896 1.03474 84.0346 1.01877 83.8059 0.967283C83.7685 0.958868 83.7311 0.966308 83.7108 0.986229ZM129.588 1.53044C129.564 1.54406 129.514 1.54843 129.477 1.54015C129.387 1.5204 129.238 1.54924 129.238 1.58642C129.238 1.62234 129.315 1.69444 129.353 1.69444C129.368 1.69444 129.381 1.67839 129.381 1.65878C129.381 1.63917 129.389 1.62313 129.4 1.62313C129.436 1.62313 129.476 1.68078 129.476 1.73486C129.476 1.81958 129.574 1.80559 129.676 1.70632C129.723 1.66056 129.772 1.62313 129.785 1.62313C129.798 1.62313 129.809 1.59638 129.809 1.56369C129.809 1.51073 129.799 1.50433 129.719 1.50497C129.67 1.50538 129.611 1.51684 129.588 1.53044ZM75.0359 6.01077C75.0359 6.03293 75.0521 6.04505 75.0755 6.04049C75.1352 6.02893 75.1434 5.97337 75.0854 5.97337C75.0562 5.97337 75.0359 5.98874 75.0359 6.01077Z" fill="#9D9D9D"/>
</svg>
